# xmcd
#
# Track frame offsets: 
#        150
#        15170
#        31430
#        48650
#        61915
#        81067
#        96307
#        118722
#        135072
#        150875
#        171580
#        182825
#        200045
#        220335
#
# Disc length: 4440 seconds
#
# Revision: 3
# Processed by: cddbd v1.5.2PL0 Copyright (c) Steve Scherf et al.
# Submitted via: ExactAudioCopy v1.0b3
#
DISCID=b711560e
DTITLE=Søs Fenger - Nøglen til Paradis
DYEAR=2004
DGENRE=Country
TTITLE0=Hvorfor skal foråret være grønt
TTITLE1=Forelsket i København
TTITLE2=Dig og mig
TTITLE3=Stilleleg for voksne
TTITLE4=Jeg spørger mig selv
TTITLE5=Nøglen til Paradis
TTITLE6=Jeg er vistnok lidt gammeldags
TTITLE7=Kærlighed
TTITLE8=Ligeglad
TTITLE9=Nattens sidste cigaret
TTITLE10=Alley Cat
TTITLE11=Where Did The Swallows Go
TTITLE12=Norwegian Sunset
TTITLE13=DATA
EXTD=YEAR: 2004
EXTT0=
EXTT1=
EXTT2=
EXTT3=
EXTT4=
EXTT5=
EXTT6=
EXTT7=
EXTT8=
EXTT9=
EXTT10=
EXTT11=
EXTT12=
EXTT13=
PLAYORDER=
